{
  "accessors": [
    {
      "bufferView": 2,
      "componentType": 5126,
      "count": 12953,
      "max": [
        1,
        1,
        1
      ],
      "min": [
        -1,
        -1,
        -1.8785796165466309
      ],
      "type": "VEC3"
    },
    {
      "bufferView": 2,
      "byteOffset": 155436,
      "componentType": 5126,
      "count": 12953,
      "max": [
        1,
        1,
        1
      ],
      "min": [
        -1,
        -1,
        -0.99999397993087769
      ],
      "type": "VEC3"
    },
    {
      "bufferView": 1,
      "componentType": 5126,
      "count": 12953,
      "max": [
        1.0000001192092896,
        1
      ],
      "min": [
        -0.10546875,
        0.01000000536441803
      ],
      "type": "VEC2"
    },
    {
      "bufferView": 0,
      "componentType": 5125,
      "count": 71037,
      "max": [
        12952
      ],
      "min": [
        0
      ],
      "type": "SCALAR"
    },
    {
      "bufferView": 2,
      "byteOffset": 310872,
      "componentType": 5126,
      "count": 128,
      "max": [
        0.94341844320297241,
        0.58785849809646606,
        0.94341850280761719
      ],
      "min": [
        -0.94341844320297241,
        0.58785849809646606,
        -0.94341838359832764
      ],
      "type": "VEC3"
    },
    {
      "bufferView": 2,
      "byteOffset": 312408,
      "componentType": 5126,
      "count": 128,
      "max": [
        9.0799279206521533e-09,
        1,
        -0
      ],
      "min": [
        9.0799279206521533e-09,
        1,
        -0
      ],
      "type": "VEC3"
    },
    {
      "bufferView": 1,
      "byteOffset": 103624,
      "componentType": 5126,
      "count": 128,
      "max": [
        0.71138614416122437,
        0.84577351808547974
      ],
      "min": [
        0.13495534658432007,
        0.16660994291305542
      ],
      "type": "VEC2"
    },
    {
      "bufferView": 0,
      "byteOffset": 284148,
      "componentType": 5125,
      "count": 378,
      "max": [
        127
      ],
      "min": [
        0
      ],
      "type": "SCALAR"
    }
  ],
  "asset": {
    "extras": {
      "author": "skaljowsky (https://sketchfab.com/skaljowsky)",
      "license": "CC-BY-4.0 (http://creativecommons.org/licenses/by/4.0/)",
      "source": "https://sketchfab.com/3d-models/coffee-mug-246975ac25734b8282ee020dd86b2607",
      "title": "Coffee Mug"
    },
    "generator": "Sketchfab-9.80.0",
    "version": "2.0"
  },
  "bufferViews": [
    {
      "buffer": 0,
      "byteLength": 285660,
      "byteOffset": 0,
      "name": "floatBufferViews",
      "target": 34963
    },
    {
      "buffer": 0,
      "byteLength": 104648,
      "byteOffset": 285660,
      "byteStride": 8,
      "name": "floatBufferViews",
      "target": 34962
    },
    {
      "buffer": 0,
      "byteLength": 313944,
      "byteOffset": 390308,
      "byteStride": 12,
      "name": "floatBufferViews",
      "target": 34962
    }
  ],
  "buffers": [
    {
      "byteLength": 704252,
      "uri": "scene.bin"
    }
  ],
  "extensionsRequired": [
    "KHR_materials_pbrSpecularGlossiness"
  ],
  "extensionsUsed": [
    "KHR_materials_pbrSpecularGlossiness"
  ],
  "materials": [
    {
      "doubleSided": true,
      "emissiveFactor": [
        0,
        0,
        0
      ],
      "extensions": {
        "KHR_materials_pbrSpecularGlossiness": {
          "diffuseFactor": [
            0.98197724834917588,
            0.98197724834917588,
            0.98197724834917588,
            1
          ],
          "glossinessFactor": 0.69486288388172701,
          "specularFactor": [
            0,
            0,
            0
          ]
        }
      },
      "name": "Porcelain"
    },
    {
      "doubleSided": true,
      "emissiveFactor": [
        0,
        0,
        0
      ],
      "extensions": {
        "KHR_materials_pbrSpecularGlossiness": {
          "diffuseFactor": [
            0.065598089390094469,
            0.028911008154996871,
            0.003522077764586243,
            1
          ],
          "glossinessFactor": 0.5,
          "specularFactor": [
            0,
            0,
            0
          ]
        }
      },
      "name": "Coffee"
    }
  ],
  "meshes": [
    {
      "primitives": [
        {
          "attributes": {
            "NORMAL": 1,
            "POSITION": 0,
            "TEXCOORD_0": 2
          },
          "indices": 3,
          "material": 0,
          "mode": 4
        }
      ]
    },
    {
      "primitives": [
        {
          "attributes": {
            "NORMAL": 5,
            "POSITION": 4,
            "TEXCOORD_0": 6
          },
          "indices": 7,
          "material": 1,
          "mode": 4
        }
      ]
    }
  ],
  "nodes": [
    {
      "children": [
        1
      ],
      "name": "RootNode (gltf orientation matrix)",
      "rotation": [
        -0.70710678118654746,
        -0,
        -0,
        0.70710678118654757
      ]
    },
    {
      "children": [
        2
      ],
      "name": "RootNode (model correction matrix)"
    },
    {
      "children": [
        3
      ],
      "name": "root"
    },
    {
      "children": [
        4
      ],
      "matrix": [
        1,
        0,
        0,
        0,
        0,
        2.2204460492503131e-16,
        1,
        0,
        0,
        -1,
        2.2204460492503131e-16,
        0,
        0,
        0,
        0,
        1
      ],
      "name": "GLTF_SceneRootNode"
    },
    {
      "children": [
        5,
        6
      ],
      "matrix": [
        0.10500755906105042,
        0,
        0,
        0,
        0,
        0.10500755906105042,
        0,
        0,
        0,
        0,
        0.10500755906105042,
        0,
        0.00058472156524658203,
        0.1536494642496109,
        -0.0064881742000579834,
        1
      ],
      "name": "Cylinder_0"
    },
    {
      "mesh": 0,
      "name": ""
    },
    {
      "mesh": 1,
      "name": ""
    }
  ],
  "scene": 0,
  "scenes": [
    {
      "name": "OSG_Scene",
      "nodes": [
        0
      ]
    }
  ]
}

